<svg xmlns="http://www.w3.org/2000/svg" width="400" height="400" viewBox="0 0 400 400"><circle cx="200" cy="200" r="200" fill="#cac9f8"/><g transform="translate(200, 200) translate(-207, -207) scale(0.80859375) translate(-144, -144)" fill="#000"><path xmlns="http://www.w3.org/2000/svg" d="m555.47 447.58c-5.75-10.938-16.867-11.875-22.141-10.82-.5625-.73438-1.082-1.5078-1.668-2.2148-.38672-5.9609-2.9883-27.422-20.211-60.02-3.4805-6.5938-7.3359-13.07-11.391-19.461-.19141-1.0039-.73438-1.8984-1.5625-2.5078-5.2617-8.1211-10.918-16.07-16.895-23.82-.29687-.98438-.9375-1.7969-1.8477-2.3242-11.828-15.098-24.766-29.391-38.062-42.691-.33203-.625-.86719-1.0977-1.4805-1.4805-23.145-22.988-47.184-42.969-67.949-58.758-1.7852-1.3555-4.3281-1.0117-5.6914.77734-.082031.10938-.10547.24219-.17187.35938-.83984.84766-1.3438 2.0117-1.1875 3.2852.039062.32422 3.8828 32.926 15.492 68.488 15.789 48.371 37.656 78.988 64.977 91.004 13.246 5.8203 24.379 11.164 33.711 15.961-5.3672-1.0195-10.883-1.6016-16.535-1.6016-15.664.0-30.91 4.1445-44.371 11.934-5.2188-4.5273-10.027-8.4883-13.773-11.441-.36719-.5-.81641-.9375-1.4062-1.2344-.085938-.039063-.17578-.035156-.26563-.074219-1.1016-.85156-2.1328-1.6367-2.9609-2.2461-1.4961-1.0977-3.793-2.6953-6.6992-4.7148-20.25-14.062-74.016-51.41-91.73-85.039-19.52-37.066-4.6992-78.383-4.4727-78.988.78125-2.1016-.28906-4.4453-2.3945-5.2227-.33203-.125-.67578-.125-1.0117-.16016-1.7227-.46484-3.6016.1875-4.543 1.7969-45.812 78.203-57.695 137.63-35.348 176.62 25.246 44.047 86.848 47.473 105.12 47.473 8.0625.0 16.27.30078 24.289.80078-5.9961 12.141-9.168 25.504-9.168 39.238.0 48.941 39.805 88.75 88.734 88.75 48.941.0 88.75-39.812 88.75-88.75.0-6.1523-.62891-12.156-1.8281-17.961.80469-.10547 1.5938-.38281 2.2305-.97266 3.7578-3.4414 9.2969-12.871 3.4609-23.988zm-12.422 51.309c-10.027.38281-17.625-2.4492-23.137-8.7227-15.176-17.277-9.7539-54.645-8.1719-63.641 4.6445 3.5586 8.9219 7.5625 12.695 12.027.20312.28906.41406.54297.68359.76562 11.473 13.93 18.367 31.762 18.367 51.172.0 2.8359-.15625 5.6367-.4375 8.3984zm-77.109-111.22c.074219-.17188.17969-.3125.23047-.49219l13.215-47.84c4.2773 5.7617 8.3789 11.613 12.242 17.574l-9.8984 38.496c-4.8047-2.4531-10.047-5.0312-15.789-7.7383zm54.473 30.586c-3.0781-2.2305-7.0938-4.9531-12.223-8.1211l4.1094-14.969c3.8906 9.0859 6.4414 16.832 8.1133 23.09zm-13.387-34.539-6.0703 22.094c-3.5312-2.0391-7.457-4.2266-11.824-6.5547l8.4375-32.844c2.1953 3.6875 4.3008 7.4102 6.3008 11.164 1.125 2.1016 2.1562 4.1406 3.1562 6.1406zm-104.03-54.117c.19141-.28906.36719-.57812.48828-.92187l18.27-53.004c3.9141 3.668 7.8242 7.4531 11.715 11.301l-18.867 62.367c-4.2695-6.1602-8.125-12.816-11.605-19.742zm-12.398-29.547c.29688-.35938.55078-.76172.71484-1.2227l13.578-38.336c3.4297 2.9883 6.8711 6.0547 10.328 9.1953l-17.09 49.602c-2.7852-6.3594-5.293-12.82-7.5312-19.238zm-8.9297-29.988c.17969-.27734.36328-.55469.48438-.88281l7.6562-21.453c2.8008 2.3008 5.6172 4.6602 8.4688 7.0781l-11.68 32.996c-1.8711-6.1211-3.5039-12.082-4.9297-17.738zm-7.1484-34.586c2.8203 2.2031 5.6914 4.4727 8.6016 6.8125l-4.7969 13.426c-1.7539-8.2266-2.9961-15.223-3.8047-20.238zm46.141 121.89 19.324-63.887c4.5586 4.6602 9.043 9.4766 13.469 14.363l-19.02 63.199c-4.9609-3.9297-9.5469-8.5391-13.773-13.676zm20.672 18.492c.125-.23047.27734-.45312.34766-.71875l18.113-60.18c4.6016 5.3008 9.082 10.715 13.41 16.238l-14.66 53.047c-3.0742-1.4062-6.2539-2.832-9.582-4.3008-2.6406-1.1562-5.168-2.5664-7.6289-4.0859zm21.531 34.02c15.316.0 29.594 4.3672 41.801 11.812-.21094.36328-.41797.73438-.50781 1.168-.42969 2.0234-10.27 49.977 9.6445 72.66 4.7969 5.4648 10.879 8.9688 18.133 10.566-5.1797 2.0898-10.973 5.582-15.48 11.441-7.1836 9.3398-9.1797 22.105-6.0312 37.934-12.594 9.2461-27.93 14.898-44.57 15.512 3.0078-1.4805 6.3086-3.1797 9.6016-5.0117 16.629-9.2344 23.547-16.328 22.461-23.004-1.3398-8.1211-13.371-10.062-23.77-10.828-77.473-11.098-91.059-34.434-91.352-34.953-.054688-.10938-.15234-.17578-.22266-.28125-.12109-1.6367-.21484-3.2852-.24609-4.9531 13.254 14.051 39.09 24.273 62.18 24.273 3.0547.0 6.0742-.17578 8.9961-.55078 21.648-2.7656 36.215-15.574 41.031-36.074 2.8906-12.328 1.1836-22.762-5.0781-31.004-11.504-15.148-36.074-19.316-54.836-20.133-3.1992-3.1094-6.4688-6.168-9.7031-9.0898 11.629-6.2148 24.629-9.4844 37.949-9.4844zm-17.117 49.945c6.5938.0 11.961 5.3594 11.961 11.961s-5.3672 11.961-11.961 11.961c-6.6016.0-11.961-5.3594-11.961-11.961.0-6.5977 5.3633-11.961 11.961-11.961zm-2.1523-9.8984c-9.7148-1.5625-26.973-4.082-46.578-5.7852 5.5977-7.9297 12.676-14.871 20.691-20.324 9.3125 8.3164 19.059 17.797 25.887 26.109zm-96.379-7.9492c-7.9648-.48437-15.25-1.4375-21.914-2.7617.20703-.26172.40234-.52734.54297-.84766l28.547-62.793c6.2539 4.8906 12.234 9.3398 17.684 13.289l-24.59 50.629c-.38672.80469-.42188 1.6641-.26953 2.4844zm.625-71.617-29.387 64.648c-.38672.85156-.39453 1.7539-.19531 2.5938-6.957-1.7695-13.168-3.9297-18.676-6.3516.10938-.17188.25-.32812.33203-.52344l32.965-73.094c4.9336 4.4141 9.9727 8.6875 14.961 12.727zm-21.266-18.5-34.066 75.531c-.058593.12109-.046874.25-.085937.37891-5.6523-3.0195-10.402-6.2617-14.41-9.4883l34.934-80.281c4.2539 4.6992 8.8359 9.3438 13.629 13.859zm-75.266 13.23c.019531-.046875.054687-.074219.074218-.12109l33.66-79.953c1.2305 6.8359 3.2109 13.891 6.2109 20.93l-35.227 82.172c-2.5703-7.0586-4.1523-14.73-4.7188-23.027zm32.078-96.621c-.16797.23047-.36328.42969-.48438.69922l-30.812 73.195c3.1875-25.492 13.871-55.523 31.973-89.91-.53125 4.8828-.82812 10.277-.67578 16.016zm-22.453 130.48c-.14062-.24219-.24219-.51562-.37891-.75391l35.488-82.766c3.0117 5.2344 6.7266 10.5 11.012 15.738l-35.418 81.41c-5.6172-5.5859-8.9766-10.621-10.703-13.629zm94.234 43.328 23.613-48.602c3.8047 2.6953 7.2031 5.0625 9.9609 6.9766 2.8672 1.9883 5.1289 3.5625 6.5352 4.5898.30078.22266.67578.51562 1.0039.75391l-18.246 36.508c-.054687.10547-.046875.21484-.089844.32812-6.2969-.3125-12.66-.49219-18.934-.49219-1.3125-.003907-2.5742-.039063-3.8438-.0625zm31.52 1.0664 16.113-32.23c2.6406 2.1328 5.5469 4.543 8.6406 7.2031-8.8555 6.332-16.68 14.254-22.672 23.316-.38281.57812-.71484 1.1836-1.082 1.7734-.32812-.019532-.66016-.039063-1-.0625zm46.168 13.16c-4.3633 3.6836-7.1992 9.1289-7.1992 15.281.0 11.074 9.0117 20.086 20.082 20.086 11.07.0 20.082-9.0117 20.082-20.086.0-6.918-3.5156-13.027-8.8516-16.641-.097656-.37109-.17969-.74609-.38672-1.0938-3.0234-5.0547-7.8125-10.879-13.355-16.82 24.203 2.4648 34.984 10.004 39.754 16.273 4.7852 6.3086 5.9805 14.238 3.6328 24.234-5.1055 21.734-21.387 28.234-34.145 29.871-22.973 2.9258-59.312-9.2344-68.992-27.625-.11719-.22266-.30859-.36719-.45312-.55469 1.3281-9.668 4.3984-18.977 9.0898-27.543 15.68 1.2422 30.148 3.0781 40.742 4.6172zm-32.414 84.934c10.941 4.6719 28.91 9.957 58.156 13.75.17969.019531.35156.03125.52734.03125 2.0039.0 3.7539-1.4922 4.0273-3.5352.28906-2.2266-1.2852-4.2656-3.5078-4.5547-29.977-3.8828-47.082-9.3398-56.145-13.227-9.8633-4.2227-12.617-7.5664-12.645-7.5977l.082031.10156-.10938.074218c-2.4648-4.918-4.4219-10.117-5.8477-15.539 2.293 1.7891 5.1055 3.7266 8.543 5.75 18.168 10.652 44.961 18.566 79.605 23.512.097656.011719.17969.019531.28125.023437 14.844 1.0781 16.473 4.0391 16.48 4.0469.0.039063-.12109 4.4844-18.586 14.707-10.375 5.7383-21.043 10.238-21.148 10.289-.34766.14453-.62109.38672-.90625.61328-19.562-3.3516-36.758-13.695-48.809-28.445zm117.19 8.0664c-1.5469-11.332.1875-20.383 5.2109-26.953 5.1484-6.7266 12.773-9.5078 17.68-10.652-4.043 14.621-12.078 27.562-22.891 37.605zm30.02-85.242c-2.1562-6.9492-5.2188-13.477-8.9219-19.578 2.9883.36719 7.0078 1.832 9.5469 6.6797 3.207 6.1094.95312 10.734-.625 12.898z" fill="#000000" id="svg-el-0"/></g></svg>